<svg width="249" height="124" viewBox="0 0 249 124" fill="none" xmlns="http://www.w3.org/2000/svg">
<mask id="mask0_48_570" style="mask-type:alpha" maskUnits="userSpaceOnUse" x="0" y="0" width="249" height="124">
<rect width="249" height="124" fill="#D9D9D9"/>
</mask>
<g mask="url(#mask0_48_570)">
<path d="M249 124.5C249 98.2082 240.677 72.5913 225.223 51.3207L219.179 55.7115C233.706 75.7058 241.53 99.7857 241.53 124.5H249Z" fill="#55C2A3"/>
<path d="M23.7831 51.3129C8.3275 72.5822 0.00205873 98.1984 3.81538e-07 124.49L7.47 124.491C7.47194 99.7765 15.2979 75.6973 29.8261 55.7041L23.7831 51.3129Z" fill="#FFC56D"/>
<path opacity="0.5" d="M249 124.5C249 98.2082 240.677 72.5913 225.223 51.3207C209.769 30.0502 187.978 14.2181 162.973 6.09346C137.968 -2.03116 111.032 -2.03115 86.0274 6.09347C61.0224 14.2181 39.2313 30.0502 23.7774 51.3207L29.8207 55.7115C44.3474 35.7172 64.831 20.835 88.3357 13.1979C111.84 5.56072 137.16 5.56072 160.664 13.1979C184.169 20.835 204.653 35.7172 219.179 55.7115C233.706 75.7058 241.53 99.7857 241.53 124.5H249Z" fill="#FFC56D"/>
<path opacity="0.5" d="M249 124.5C249 98.2082 240.677 72.5913 225.223 51.3207C209.769 30.0502 187.978 14.2181 162.973 6.09346L160.664 13.1979C184.169 20.835 204.653 35.7172 219.179 55.7115C233.706 75.7058 241.53 99.7857 241.53 124.5H249Z" fill="#55C2A3"/>
<path d="M162.988 6.09833C137.984 -2.02945 111.048 -2.03286 86.0424 6.08859L88.3498 13.1933C111.856 5.55912 137.175 5.56232 160.678 13.2024L162.988 6.09833Z" fill="#ECEEF1"/>
</g>
</svg>
