<svg width="230" height="309" viewBox="0 0 230 309" fill="none" xmlns="http://www.w3.org/2000/svg">
<g opacity="0.2">
<mask id="mask0_1_606" style="mask-type:alpha" maskUnits="userSpaceOnUse" x="0" y="0" width="230" height="309">
<rect width="230" height="309" fill="#D9D9D9"/>
</mask>
<g mask="url(#mask0_1_606)">
<mask id="mask1_1_606" style="mask-type:alpha" maskUnits="userSpaceOnUse" x="-87" y="-27" width="358" height="297">
<path fill-rule="evenodd" clip-rule="evenodd" d="M109.134 267.685C85.6777 270.592 65.6986 252.492 42.3478 248.927C3.26843 242.961 -47.6649 267.117 -74.0234 239.723C-98.0745 214.728 -77.5078 171.425 -60.7961 141.731C-46.4707 116.277 -14.4769 105.755 10.7511 89.0945C26.4385 78.7345 46.8861 75.6353 59.598 62.2229C81.2321 39.3965 80.3588 -0.15387 109.134 -14.7108C137.476 -29.0484 178.46 -28.9454 204.268 -10.9628C230.517 7.32669 224.415 45.3541 236.138 73.7821C245.779 97.162 274.46 117.614 267.236 141.731C259.541 167.418 221.576 172.229 201.053 190.909C187.107 203.602 180.866 221.431 166.347 233.559C149.208 247.875 132.004 264.851 109.134 267.685Z" fill="#C4C4C4" stroke="white" stroke-width="4"/>
</mask>
<g mask="url(#mask1_1_606)">
<path fill-rule="evenodd" clip-rule="evenodd" d="M66.6964 212.218C43.2366 215.124 23.2548 197.028 -0.0991336 193.464C-39.1839 187.499 -90.1241 211.65 -116.486 184.263C-140.541 159.273 -119.971 115.98 -103.257 86.2942C-88.9298 60.8468 -56.9316 50.3269 -31.7002 33.6704C-16.0107 23.313 4.43976 20.2146 17.1534 6.80543C38.7904 -16.0154 37.917 -55.5561 66.6964 -70.1095C95.0421 -84.4435 136.031 -84.3405 161.843 -66.3623C188.095 -48.0773 181.993 -10.0592 193.717 18.3618C203.36 41.736 232.045 62.1832 224.819 86.2942C217.124 111.975 179.154 116.784 158.627 135.46C144.68 148.15 138.438 165.975 123.916 178.1C106.776 192.412 89.5689 209.384 66.6964 212.218Z" stroke="white" stroke-width="4"/>
<path fill-rule="evenodd" clip-rule="evenodd" d="M41.5566 167.064C21.1341 169.594 3.73941 153.841 -16.5908 150.739C-50.6152 145.547 -94.9601 166.57 -117.909 142.73C-138.849 120.977 -120.943 83.2919 -106.393 57.4507C-93.9204 35.2993 -66.0651 26.1421 -44.1004 11.643C-30.4423 2.62709 -12.6396 -0.0700152 -1.57204 -11.7424C17.2636 -31.6073 16.5033 -66.0266 41.5566 -78.695C66.2323 -91.1724 101.914 -91.0827 124.384 -75.4332C147.238 -59.5165 141.925 -26.4227 152.132 -1.68283C160.526 18.6638 185.497 36.4626 179.207 57.4507C172.508 79.8051 139.454 83.9916 121.585 100.248C109.443 111.295 104.01 126.811 91.3682 137.366C76.4467 149.824 61.4677 164.598 41.5566 167.064Z" stroke="white" stroke-width="4"/>
<path fill-rule="evenodd" clip-rule="evenodd" d="M8.25459 128.596C-9.88983 130.849 -25.3442 116.82 -43.4067 114.057C-73.6358 109.433 -113.034 128.155 -133.423 106.924C-152.028 87.5509 -136.119 53.989 -123.192 30.975C-112.111 11.2472 -87.3624 3.09183 -67.8478 -9.82092C-55.7131 -17.8504 -39.8962 -20.2524 -30.0632 -30.6477C-13.3286 -48.3392 -14.0041 -78.9927 8.25459 -90.2751C30.1778 -101.387 61.8797 -101.307 81.8432 -87.3701C102.147 -73.1949 97.4275 -43.7218 106.496 -21.6888C113.954 -3.5682 136.139 12.2832 130.551 30.975C124.599 50.8837 95.2317 54.6121 79.3561 69.0902C68.5686 78.9282 63.7415 92.7467 52.5099 102.146C39.2528 113.241 25.9447 126.399 8.25459 128.596Z" stroke="white" stroke-width="4"/>
</g>
</g>
</g>
</svg>
