<svg width="230" height="309" viewBox="0 0 230 309" fill="none" xmlns="http://www.w3.org/2000/svg">
<g opacity="0.2">
<mask id="mask0_1_613" style="mask-type:alpha" maskUnits="userSpaceOnUse" x="0" y="0" width="230" height="309">
<rect width="230" height="309" fill="#D9D9D9"/>
</mask>
<g mask="url(#mask0_1_613)">
<mask id="mask1_1_613" style="mask-type:alpha" maskUnits="userSpaceOnUse" x="-41" y="57" width="359" height="298">
<path fill-rule="evenodd" clip-rule="evenodd" d="M121.255 59.3305C144.711 56.4235 164.691 74.5244 188.041 78.0892C227.121 84.0553 278.054 59.8985 304.413 87.2924C328.464 112.288 307.897 155.591 291.185 185.285C276.86 210.738 244.866 221.261 219.638 237.921C203.951 248.281 183.503 251.381 170.791 264.793C149.157 287.619 150.03 327.17 121.255 341.727C92.913 356.064 51.9296 355.961 26.1213 337.979C-0.127502 319.689 5.97431 281.662 -5.74885 253.234C-15.3903 229.854 -44.0709 209.402 -36.8467 185.285C-29.1522 159.598 8.81296 154.787 29.3365 136.107C43.2823 123.414 49.5227 105.584 64.0426 93.4564C81.1811 79.1412 98.3854 62.1647 121.255 59.3305Z" fill="#C4C4C4" stroke="white" stroke-width="4"/>
</mask>
<g mask="url(#mask1_1_613)">
<path fill-rule="evenodd" clip-rule="evenodd" d="M163.693 114.798C187.153 111.892 207.134 129.988 230.488 133.552C269.573 139.517 320.513 115.366 346.875 142.753C370.93 167.743 350.36 211.035 333.646 240.722C319.319 266.169 287.321 276.689 262.089 293.345C246.4 303.703 225.949 306.801 213.236 320.21C191.599 343.031 192.472 382.572 163.693 397.125C135.347 411.459 94.3581 411.356 68.5463 393.378C42.2939 375.093 48.3965 337.075 36.6718 308.654C27.0291 285.28 -1.65552 264.833 5.5697 240.722C13.2653 215.041 51.2356 210.232 71.7619 191.556C85.7096 178.866 91.9509 161.041 106.473 148.916C123.614 134.604 140.82 117.632 163.693 114.798Z" stroke="white" stroke-width="4"/>
<path fill-rule="evenodd" clip-rule="evenodd" d="M188.833 159.952C209.255 157.422 226.65 173.175 246.98 176.277C281.004 181.469 325.349 160.446 348.298 184.286C369.238 206.039 351.332 243.724 336.782 269.565C324.31 291.717 296.454 300.874 274.49 315.373C260.831 324.389 243.029 327.086 231.961 338.759C213.126 358.623 213.886 393.043 188.833 405.711C164.157 418.189 128.475 418.099 106.005 402.449C83.1515 386.533 88.464 353.439 78.2573 328.699C69.863 308.352 44.8923 290.553 51.182 269.565C57.8812 247.211 90.9355 243.025 108.804 226.768C120.946 215.721 126.379 200.205 139.021 189.651C153.942 177.193 168.921 162.419 188.833 159.952Z" stroke="white" stroke-width="4"/>
<path fill-rule="evenodd" clip-rule="evenodd" d="M222.135 198.42C240.279 196.167 255.733 210.196 273.796 212.959C304.025 217.583 343.423 198.86 363.813 220.092C382.417 239.465 366.508 273.027 353.581 296.041C342.5 315.769 317.752 323.924 298.237 336.837C286.102 344.866 270.285 347.268 260.452 357.664C243.718 375.355 244.393 406.009 222.135 417.291C200.211 428.403 168.509 428.323 148.546 414.386C128.242 400.211 132.962 370.738 123.894 348.705C116.436 330.584 94.2502 314.733 99.8384 296.041C105.79 276.132 135.158 272.404 151.033 257.926C161.821 248.088 166.648 234.269 177.879 224.869C191.136 213.774 204.444 200.617 222.135 198.42Z" stroke="white" stroke-width="4"/>
</g>
</g>
</g>
</svg>
