<svg width="14" height="13" viewBox="0 0 14 13" fill="none" xmlns="http://www.w3.org/2000/svg">
<path fill-rule="evenodd" clip-rule="evenodd" d="M13.4 6.4911C13.4 6.92392 13.3559 7.35614 13.2694 7.77745C13.185 8.18876 13.06 8.59256 12.8962 8.97858C12.7362 9.35777 12.5378 9.72317 12.3059 10.0639C12.0774 10.4026 11.8143 10.7202 11.5252 11.0098C11.2355 11.2982 10.9167 11.5606 10.5783 11.79C10.2364 12.0203 9.87047 12.2184 9.49106 12.3792C9.10449 12.5421 8.69975 12.6669 8.2888 12.7511C7.86693 12.8379 7.43313 12.8822 6.99969 12.8822C6.56592 12.8822 6.13215 12.8379 5.71088 12.7511C5.2993 12.6669 4.89459 12.5421 4.50832 12.3792C4.12893 12.2184 3.76264 12.0203 3.42076 11.79C3.0823 11.5606 2.76354 11.2982 2.47446 11.0098C2.18508 10.7202 1.92193 10.4026 1.69317 10.0639C1.46253 9.72317 1.26376 9.35774 1.10313 8.97858C0.939356 8.59256 0.814055 8.18873 0.72936 7.77745C0.643738 7.35614 0.599976 6.92392 0.599976 6.4911C0.599976 6.05796 0.643713 5.62481 0.729385 5.20443C0.81408 4.79312 0.939381 4.38869 1.10316 4.0033C1.26378 3.62384 1.46256 3.25811 1.69319 2.91731C1.92195 2.57842 2.18511 2.26134 2.47449 1.97143C2.76357 1.68307 3.08233 1.42127 3.42078 1.19222C3.76267 0.960961 4.12895 0.762824 4.50834 0.601783C4.89461 0.438541 5.2993 0.313421 5.7109 0.229799C6.13217 0.143675 6.56594 0.0999756 6.99971 0.0999756C7.43316 0.0999756 7.86693 0.143675 8.28882 0.229799C8.69977 0.313446 9.10449 0.438566 9.49109 0.601783C9.87047 0.762799 10.2364 0.960961 10.5783 1.19222C10.9168 1.42127 11.2356 1.68307 11.5252 1.97143C11.8143 2.26134 12.0775 2.57842 12.3059 2.91731C12.5378 3.25811 12.7362 3.62386 12.8962 4.0033C13.06 4.38869 13.185 4.79312 13.2694 5.20443C13.3559 5.62481 13.4 6.05796 13.4 6.4911ZM4.66766 1.55451C3.14351 2.27322 2.00595 3.67563 1.65124 5.36578C1.79533 5.36703 4.07295 5.39575 6.69714 4.69951C5.75116 3.02121 4.74049 1.65159 4.66766 1.55451ZM7.14997 5.53993C4.33577 6.38123 1.6353 6.3207 1.53844 6.31697C1.53686 6.37563 1.53405 6.43241 1.53405 6.4911C1.53405 7.89319 2.06376 9.17141 2.93444 10.1379C2.93256 10.1351 4.42828 7.48533 7.3778 6.53292C7.44904 6.50921 7.52156 6.48797 7.59343 6.46738C7.45626 6.15721 7.30653 5.84638 7.14997 5.53993ZM10.6092 2.39491C9.64698 1.54764 8.3835 1.0337 6.99967 1.0337C6.55558 1.0337 6.12461 1.08738 5.71179 1.18661C5.79365 1.29647 6.82028 2.65644 7.75501 4.37028C9.81732 3.59824 10.5958 2.41488 10.6092 2.39491ZM7.96599 7.37175C7.95382 7.37577 7.94165 7.37925 7.92975 7.3836C4.70494 8.50619 3.65184 10.7685 3.64045 10.7932C4.56833 11.5138 5.73214 11.9485 6.99971 11.9485C7.7566 11.9485 8.47757 11.7946 9.13354 11.516C9.0526 11.0391 8.73509 9.36772 7.96599 7.37175ZM10.0539 11.0173C11.2811 10.1903 12.1527 8.87717 12.3959 7.35611C12.2834 7.31992 10.7542 6.83652 8.99006 7.11895C9.70697 9.08624 9.99826 10.6884 10.0539 11.0173ZM8.1757 5.18353C8.30256 5.44381 8.4254 5.7087 8.53883 5.97493C8.57916 6.07043 8.61854 6.16406 8.65697 6.25766C10.5346 6.02173 12.3843 6.41868 12.4634 6.43489C12.4509 5.14108 11.9874 3.95367 11.2206 3.02404C11.2102 3.03867 10.3336 4.30349 8.1757 5.18353Z" fill="white"/>
</svg>
