<svg width="14" height="13" viewBox="0 0 14 13" fill="none" xmlns="http://www.w3.org/2000/svg">
<path fill-rule="evenodd" clip-rule="evenodd" d="M7.00058 0.0999756C5.26242 0.0999756 5.04429 0.107576 4.36161 0.138643C3.68027 0.169843 3.2152 0.277711 2.80827 0.435979C2.38733 0.599447 2.03026 0.818116 1.67452 1.17399C1.31852 1.52972 1.09985 1.88679 0.935846 2.3076C0.777177 2.71467 0.669176 3.17987 0.638509 3.86095C0.607976 4.54362 0.599976 4.76189 0.599976 6.50004C0.599976 8.23819 0.607709 8.45566 0.638643 9.13834C0.669976 9.81968 0.777844 10.2847 0.935979 10.6917C1.09958 11.1126 1.31825 11.4697 1.67412 11.8254C2.02972 12.1814 2.38679 12.4006 2.80747 12.5641C3.21467 12.7224 3.67987 12.8302 4.36108 12.8614C5.04376 12.8925 5.26176 12.9001 6.99978 12.9001C8.73806 12.9001 8.95553 12.8925 9.6382 12.8614C10.3195 12.8302 10.7851 12.7224 11.1924 12.5641C11.6132 12.4006 11.9697 12.1814 12.3253 11.8254C12.6813 11.4697 12.9 11.1126 13.064 10.6918C13.2213 10.2847 13.3293 9.81954 13.3613 9.13847C13.392 8.4558 13.4 8.23819 13.4 6.50004C13.4 4.76189 13.392 4.54375 13.3613 3.86108C13.3293 3.17974 13.2213 2.71467 13.064 2.30773C12.9 1.88679 12.6813 1.52972 12.3253 1.17399C11.9693 0.817983 11.6133 0.599314 11.192 0.435979C10.7839 0.277711 10.3186 0.169843 9.63727 0.138643C8.9546 0.107576 8.73726 0.0999756 6.99858 0.0999756H7.00058ZM6.42641 1.2533C6.59681 1.25304 6.78695 1.2533 7.00055 1.2533C8.70937 1.2533 8.9119 1.25944 9.58671 1.2901C10.2107 1.31864 10.5494 1.4229 10.775 1.51051C11.0737 1.62651 11.2866 1.76518 11.5105 1.98918C11.7345 2.21318 11.8731 2.42652 11.9894 2.72518C12.077 2.95052 12.1814 3.28919 12.2098 3.9132C12.2405 4.58787 12.2471 4.79054 12.2471 6.49856C12.2471 8.20658 12.2405 8.40924 12.2098 9.08392C12.1813 9.70792 12.077 10.0466 11.9894 10.2719C11.8734 10.5706 11.7345 10.7833 11.5105 11.0071C11.2865 11.2311 11.0738 11.3698 10.775 11.4858C10.5497 11.5738 10.2107 11.6778 9.58671 11.7063C8.91203 11.737 8.70937 11.7437 7.00055 11.7437C5.2916 11.7437 5.08906 11.737 4.41439 11.7063C3.79038 11.6775 3.45171 11.5733 3.22598 11.4857C2.92731 11.3697 2.71397 11.231 2.48997 11.007C2.26597 10.783 2.1273 10.5702 2.01103 10.2714C1.92343 10.0461 1.81903 9.70739 1.79063 9.08339C1.75996 8.40871 1.75383 8.20604 1.75383 6.49696C1.75383 4.78787 1.75996 4.58627 1.79063 3.9116C1.81916 3.28759 1.92343 2.94892 2.01103 2.72332C2.12703 2.42465 2.26597 2.21131 2.48997 1.98731C2.71397 1.76331 2.92731 1.62464 3.22598 1.50837C3.45158 1.42037 3.79038 1.31637 4.41439 1.2877C5.00479 1.26104 5.2336 1.25304 6.42641 1.2517V1.2533ZM10.4169 2.31598C9.99285 2.31598 9.64885 2.65959 9.64885 3.08372C9.64885 3.50773 9.99285 3.85173 10.4169 3.85173C10.8409 3.85173 11.1849 3.50773 11.1849 3.08372C11.1849 2.65972 10.8409 2.31598 10.4169 2.31598ZM7.00059 3.21332C5.1855 3.21332 3.71389 4.68494 3.71389 6.50002C3.71389 8.31511 5.1855 9.78606 7.00059 9.78606C8.81567 9.78606 10.2868 8.31511 10.2868 6.50002C10.2868 4.68494 8.81567 3.21332 7.00059 3.21332ZM7.00056 4.36667C8.17871 4.36667 9.13392 5.32175 9.13392 6.50002C9.13392 7.67817 8.17871 8.63338 7.00056 8.63338C5.82228 8.63338 4.86721 7.67817 4.86721 6.50002C4.86721 5.32175 5.82228 4.36667 7.00056 4.36667Z" fill="white"/>
</svg>
