<svg width="13" height="14" viewBox="0 0 13 14" fill="none" xmlns="http://www.w3.org/2000/svg">
<path d="M6.50033 10.3824C8.44483 10.3824 10.0212 8.75597 10.0212 6.74971C10.0212 4.74346 8.44483 3.11707 6.50033 3.11707C4.55582 3.11707 2.97949 4.74346 2.97949 6.74971C2.97949 8.75597 4.55582 10.3824 6.50033 10.3824Z" stroke="#FFC221" stroke-width="1.5" stroke-linecap="round" stroke-linejoin="round"/>
<path d="M10.3672 10.74L10.2968 10.6674M10.2968 2.83203L10.3672 2.75938L10.2968 2.83203ZM2.63217 10.74L2.70259 10.6674L2.63217 10.74ZM6.49967 1.20572V1.16101V1.20572ZM6.49967 12.3384V12.2937V12.3384ZM1.12634 6.7497H1.08301H1.12634ZM11.9163 6.7497H11.873H11.9163ZM2.70259 2.83203L2.63217 2.75938L2.70259 2.83203Z" stroke="#FFC221" stroke-width="2" stroke-linecap="round" stroke-linejoin="round"/>
</svg>
