<svg width="12" height="11" viewBox="0 0 12 11" fill="none" xmlns="http://www.w3.org/2000/svg">
<path fill-rule="evenodd" clip-rule="evenodd" d="M5.6406 3.2537L5.66578 3.66893L5.2461 3.61808C3.71843 3.42318 2.38383 2.76221 1.25067 1.65211L0.696681 1.1013L0.553988 1.50805C0.251813 2.41477 0.444869 3.37234 1.0744 4.01636C1.41015 4.37227 1.33461 4.42312 0.755438 4.21127C0.553988 4.14347 0.377719 4.09263 0.360931 4.11805C0.302175 4.17737 0.503625 4.94851 0.663106 5.25357C0.881344 5.67727 1.32621 6.0925 1.81305 6.33825L2.22434 6.53315L1.73751 6.54162C1.26746 6.54162 1.25067 6.5501 1.30103 6.72805C1.46891 7.27886 2.13201 7.86357 2.87066 8.11779L3.39108 8.29574L2.93781 8.56691C2.26631 8.95672 1.4773 9.17704 0.688288 9.19399C0.310569 9.20247 0 9.23636 0 9.26178C0 9.34652 1.02404 9.82107 1.61999 10.0075C3.40786 10.5583 5.53148 10.321 7.1263 9.38042C8.25945 8.71097 9.39261 7.38055 9.92142 6.0925C10.2068 5.4061 10.4922 4.15195 10.4922 3.55029C10.4922 3.16049 10.5174 3.10964 10.9874 2.64357C11.2644 2.3724 11.5246 2.07581 11.575 1.99107C11.6589 1.83007 11.6505 1.83007 11.2224 1.97412C10.509 2.22834 10.4083 2.19445 10.7608 1.81312C11.021 1.54195 11.3316 1.05046 11.3316 0.906397C11.3316 0.880975 11.2057 0.923345 11.063 0.999612C10.9119 1.08435 10.5761 1.21146 10.3243 1.28773L9.87105 1.43179L9.45976 1.15214C9.23313 0.999612 8.91417 0.830131 8.74629 0.779287C8.31821 0.660651 7.6635 0.677599 7.27738 0.813183C6.22816 1.19451 5.56506 2.1775 5.6406 3.2537Z" fill="white"/>
</svg>
