<svg width="14" height="10" viewBox="0 0 14 10" fill="none" xmlns="http://www.w3.org/2000/svg">
<path fill-rule="evenodd" clip-rule="evenodd" d="M12.0008 0.37464C12.5515 0.525772 12.9853 0.971082 13.1325 1.53659C13.4 2.56149 13.4 4.69998 13.4 4.69998C13.4 4.69998 13.4 6.83838 13.1325 7.86337C12.9853 8.42887 12.5515 8.87418 12.0008 9.02539C11.0027 9.29998 6.99998 9.29998 6.99998 9.29998C6.99998 9.29998 2.99728 9.29998 1.9991 9.02539C1.44834 8.87418 1.01459 8.42887 0.867394 7.86337C0.599976 6.83838 0.599976 4.69998 0.599976 4.69998C0.599976 4.69998 0.599976 2.56149 0.867394 1.53659C1.01459 0.971082 1.44834 0.525772 1.9991 0.37464C2.99728 0.0999756 6.99998 0.0999756 6.99998 0.0999756C6.99998 0.0999756 11.0027 0.0999756 12.0008 0.37464ZM5.79999 2.89993V6.89993L8.99999 4.90001L5.79999 2.89993Z" fill="white"/>
</svg>
